<?xml version="1.0" encoding="utf-8"?>
<!-- Generator: Adobe Illustrator 19.2.0, SVG Export Plug-In . SVG Version: 6.00 Build 0)  -->
<svg version="1.1" id="Layer_1" xmlns="http://www.w3.org/2000/svg" xmlns:xlink="http://www.w3.org/1999/xlink" x="0px" y="0px"
	 viewBox="0 0 381 45.6" style="enable-background:new 0 0 381 45.6;" xml:space="preserve">
<style type="text/css">
	.st0{fill:#140B01;}
	.st1{fill:#F26531;}
</style>
<path class="st0" d="M5,12.6L8.8,11v5.4c0,0.4,0.2,0.6,0.3,0.6s0.2,0,0.3-0.1c0.5-0.3,1.6-5.5,6.5-5.5c2.7,0,4.9,1.7,6.1,3.9
	c1.4,2.6,2.1,6.2,2.1,9.1c0,8.8-3.7,13.3-8.1,13.3c-1.6,0-4-1-5.5-3.2c-0.7-1.1-0.9-1.2-1.1-1.2s-0.2,0.4-0.2,0.7v11.8H5V12.6z
	 M14.8,14.8c-3.7,0-5.8,5.2-5.8,9.5c0,7.5,3.3,9.6,6,9.6c2.1,0,4.7-1.9,4.7-9.8C19.7,21.4,19.4,14.8,14.8,14.8z"/>
<path class="st0" d="M49.6,31.6c0,1.3,0,2.8,2.2,2.7v3.4c-2.1-0.1-3.6-0.2-4.9-1.7c-0.4-0.4-1.1-1.3-1.2-2.5l-0.1-0.1
	c-0.3,0.2-1.3,1.3-1.6,1.5c-2.9,2.5-4.8,2.7-7,2.7c-3.6,0-6.1-2.9-6.1-6.1c0-3.1,1.5-5.5,3.7-7.1c2.7-2,6.6-2.7,10.7-2.8v-3.3
	c0-1,0-3.5-3.9-3.5c-2.5,0-5.1,1.3-7.2,2.6l-1.9-3.2c3.1-1.7,5.4-2.9,9.4-2.9c1.8,0,4.2,0.5,5.8,1.7c1.8,1.4,2.3,3.3,2.3,5.8
	L49.6,31.6L49.6,31.6z M45.2,24.2c-5.3,0-10,2.1-10,6.5c0,2.1,1.4,3.9,3.7,3.9c2.8,0,5-2.3,6.3-3.6V24.2z"/>
<path class="st0" d="M60.6,13.1l4-1.6v8c0,0.3,0.1,0.6,0.2,0.6h0.5c0.3-0.3,1.2-2,1.5-2.3c3.2-4.8,6.3-6,7-6.2v7.1
	c-0.5-0.1-1.1-0.1-1.6-0.1c-3,0-5.4,2-7.2,4.5v14.4h-4.5V13.1z"/>
<path class="st0" d="M80.1,14.1h3.6V8.4l4-3.9h0.5v9.6h4v2.7h-4.2v14.9c0,0.5,0,2.3,2.1,2.3c1.4,0,3-0.8,4.2-1.4v3.8
	c-1.3,0.7-3.5,1.2-4.9,1.2c-1.2,0-5.8-0.4-5.8-5.4V16.9h-3.6L80.1,14.1L80.1,14.1z"/>
<path class="st0" d="M102.5,13.1l3.9-1.6v4.9c0,0.2,0.1,0.5,0.4,0.5s0.6-0.4,0.8-0.7l1-1.3c1.5-2,3.5-3.2,6-3.2c1.2,0,2.3,0.3,3.3,1
	c1,0.7,1.8,1.8,1.8,5.4v19.2h-4.2V18.2c0-0.7,0-3.3-2.5-3.3c-2.3,0-4.1,2.4-4.3,2.7c-1.5,2-1.9,2.6-1.9,2.7v17h-4.3V13.1z"/>
<path class="st0" d="M148,25.1h-14.9c0,5.6,1.6,9.4,6,9.4c2.9,0,4.3-1.4,5.1-2.1l2.5,2.3c-1.6,1.4-3.6,3.2-8.2,3.2
	c-5.8,0-9.9-4.6-9.9-12.5c0-12.8,7.6-13.8,9.8-13.8c6,0,9.3,5.1,9.4,11.3L148,25.1z M143.6,22.2c0-4.3-1.6-7.5-5-7.5
	c-2.1,0-3.7,1.2-4.5,3.2c-0.8,1.8-0.8,3.5-0.9,4.4L143.6,22.2L143.6,22.2z"/>
<path class="st0" d="M156.6,13.1l4-1.6v8c0,0.3,0.1,0.6,0.2,0.6h0.5c0.3-0.3,1.2-2,1.5-2.3c3.2-4.8,6.3-6,7-6.2v7.1
	c-0.5-0.1-1.1-0.1-1.6-0.1c-3,0-5.4,2-7.2,4.5v14.4h-4.5V13.1z"/>
<path class="st0" d="M189.3,17.1c-1.9-1.3-3.2-2.3-5.7-2.3c-2.6,0-3.7,1.7-3.7,3.3c0,1.9,1.5,2.8,3,3.6l4,2c1.4,0.7,4.7,2.3,4.7,6.6
	c0,4.5-3.5,7.6-8.3,7.6c-3.6,0-5.9-1.4-7.4-2.4l1.7-3.3c2.4,1.9,3.8,2.5,5.9,2.5c2.7,0,4.3-1.9,4.3-3.9c0-2.1-1-2.7-5.1-4.7
	c-4.6-2.3-6.3-4.2-6.3-7.5c0-4.4,3.5-6.9,7.5-6.9c1.8,0,3.7,0.1,6.7,2L189.3,17.1z"/>
<path class="st1" d="M213.2,19.1c-0.4-1.1-1.3-4-4.3-4c-3,0-5.2,3.1-5.2,8.3c0,2.1,0.1,4.8,0.8,6.6c0.7,1.8,2.1,4.1,4.8,4.1
	c2.6,0,3.9-2.3,4.3-4.8l3.8,1.7c-0.8,4.1-3.8,6.8-8.1,6.8c-9.6,0-9.8-11.3-9.8-12.7c0-2.4,0-6.4,2.5-9.9c2.2-3,5-3.6,6.8-3.6
	c1,0,4.5,0.3,6.4,2.9c0.9,1.2,1.1,1.5,1.6,2.7L213.2,19.1z"/>
<path class="st1" d="M225,13.1l4-1.6v8c0,0.3,0.1,0.6,0.2,0.6h0.5c0.3-0.3,1.2-2,1.5-2.3c3.2-4.8,6.3-6,7-6.2v7.1
	c-0.5-0.1-1.1-0.1-1.6-0.1c-3,0-5.4,2-7.2,4.5v14.4H225L225,13.1L225,13.1z"/>
<path class="st1" d="M263.3,25.1h-14.9c0,5.6,1.6,9.4,6,9.4c2.9,0,4.3-1.4,5.1-2.1l2.5,2.3c-1.6,1.4-3.6,3.2-8.2,3.2
	c-5.8,0-9.9-4.6-9.9-12.5c0-12.8,7.6-13.8,9.8-13.8c6,0,9.3,5.1,9.4,11.3L263.3,25.1z M259,22.2c0-4.3-1.6-7.5-5-7.5
	c-2.1,0-3.7,1.2-4.5,3.2c-0.8,1.8-0.8,3.5-0.9,4.4L259,22.2L259,22.2z"/>
<path class="st1" d="M288.5,31.6c0,1.3,0,2.8,2.2,2.7v3.4c-2.1-0.1-3.6-0.2-4.9-1.7c-0.4-0.4-1.1-1.3-1.2-2.5l-0.1-0.1
	c-0.3,0.2-1.3,1.3-1.6,1.5c-2.9,2.5-4.8,2.7-7,2.7c-3.6,0-6.1-2.9-6.1-6.1c0-3.1,1.5-5.5,3.7-7.1c2.7-2,6.6-2.7,10.7-2.8v-3.3
	c0-1,0-3.5-3.9-3.5c-2.5,0-5.1,1.3-7.2,2.6l-1.9-3.2c3.1-1.7,5.4-2.9,9.4-2.9c1.8,0,4.2,0.5,5.8,1.7c1.8,1.4,2.3,3.3,2.3,5.8
	L288.5,31.6L288.5,31.6z M284.1,24.2c-5.3,0-10,2.1-10,6.5c0,2.1,1.4,3.9,3.7,3.9c2.8,0,5-2.3,6.3-3.6V24.2z"/>
<path class="st1" d="M296.8,14.1h3.6V8.4l4-3.9h0.5v9.6h4v2.7h-4.2v14.9c0,0.5,0,2.3,2.1,2.3c1.4,0,3-0.8,4.2-1.4v3.8
	c-1.3,0.7-3.5,1.2-4.9,1.2c-1.2,0-5.8-0.4-5.8-5.4V16.9h-3.6L296.8,14.1L296.8,14.1z"/>
<path class="st1" d="M318.6,2.9h5.6v4.6h-5.6V2.9z M319.3,12.1h4.3v25.1h-4.3V12.1z"/>
<path class="st1" d="M350.6,12.1l-6.5,25.1H339l-6.9-25.1h4.5l3.8,16.3c0.1,0.4,0.2,1.3,0.4,2c0.1,0.5,0.1,1.2,0.3,1.6
	c0,0.1,0.1,0.3,0.3,0.3h0.3c0.2,0,0.3-0.2,0.3-0.4c0.2-0.5,0.2-1.4,0.3-1.9c0.1-0.6,0.2-1.2,0.3-1.7l3.7-16.3L350.6,12.1L350.6,12.1
	z"/>
<path class="st1" d="M376.4,25.1h-14.9c0,5.6,1.6,9.4,6,9.4c2.9,0,4.3-1.4,5.1-2.1l2.5,2.3c-1.6,1.4-3.6,3.2-8.2,3.2
	c-5.8,0-9.9-4.6-9.9-12.5c0-12.8,7.6-13.8,9.8-13.8c6,0,9.3,5.1,9.4,11.3L376.4,25.1z M372.1,22.2c0-4.3-1.6-7.5-5-7.5
	c-2.1,0-3.7,1.2-4.5,3.2c-0.8,1.8-0.8,3.5-0.9,4.4L372.1,22.2L372.1,22.2z"/>
</svg>
